# xmcd
#
# Track frame offsets:
#	150
#	8720
#	23325
#	32482
#	46150
#	54207
#	67715
#	79007
#	90680
#	99995
#	114515
#	132360
#	149077
#	168942
#	181180
#	194265
#	206075
#	216865
#
# Disc length: 3027
#
# Revision: 5
# Processed by: cddbd v1.5.1PL0 Copyright (c) Steve Scherf et al.
# Submitted via: CDex 1.50Beta7
# Normalized: r4:DSETVAR1
#
DISCID=e20bd112
DTITLE=Various Artist - Legends Of Guitar Country Volume 2
DYEAR=1991
DGENRE=Country
TTITLE0=Little Rock Getaway - Jimmy Bryant
TTITLE1=Wildwood Flower - Carter Family
TTITLE2=Chinatown, My Chinatown - Chet Atkins and His Galloping Guitar
TTITLE3=Steelin' The Blues - Jerry Byrd and His String Dusters
TTITLE4=Corn Pickin' - James Burton and Ralph Mooney
TTITLE5=Farewell Blues - Clarence White and The Kentucky Colonels
TTITLE6=Blue Smoke - Merle Travis
TTITLE7=Dented Fender - Roy Clark
TTITLE8=The Claw - Jerry Reed
TTITLE9=Home In San Antone - Johnny Bush
TTITLE10=Me And My Guitar - Tony Rice
TTITLE11=Country Boy - Albert Lee
TTITLE12=Barnard Blues - Bob Wills and His Texas Playboys
TTITLE13=Seventh And Union - Hank Garland
TTITLE14=Give My Love To Nell - Chet Atkins and Les Paul
TTITLE15=Out Of Business - "Little" Jimmy Dickens
TTITLE16=Six Days On The Road - Dave Dudley
TTITLE17=Pork Chop Stomp - Grady Martin and His Winging Strings
EXTD=YEAR: 1991
EXTT0=
EXTT1=
EXTT2=
EXTT3=
EXTT4=
EXTT5=
EXTT6=
EXTT7=
EXTT8=
EXTT9=
EXTT10=
EXTT11=
EXTT12=
EXTT13=
EXTT14=
EXTT15=
EXTT16=
EXTT17=
PLAYORDER=
